<?xml version="1.0" encoding="UTF-8"?><svg id="Calque_1" xmlns="http://www.w3.org/2000/svg" viewBox="0 0 750.87 413.07"><defs><style>.cls-1{fill:#fff;}.cls-2{fill:#f1b5b9;}</style></defs><g><path class="cls-1" d="m47.9,342.66s-2.78-7.64-4.69-12.32C28.12,292.67,6.6,240.78,0,224.11h14.24c11.28,31.41,38.7,97.89,38.7,97.89v2.08l40.62-99.98h4.86l-48.95,118.55h-1.56Z"/><path class="cls-1" d="m175.66,340.93c-3.99-11.28-10.07-27.08-15.62-40.96h-46.52l-17.01,40.96h-5.03l48.95-118.55h1.56s2.43,7.64,4.34,12.32c15.1,37.66,37.14,89.74,44.26,106.22h-14.93Zm-17.7-45.99c-9.2-22.91-21-52.07-21-52.07v-2.08l-21.52,54.15h42.53Z"/><path class="cls-1" d="m209.68,340.93c0-10.24.34-98.76,0-116.81h13.19l.18,111.95s47.73.52,56.23-1.04l-2.08,5.9h-67.52Z"/><path class="cls-1" d="m295.95,340.93c0-10.24.34-98.76,0-116.81h25.34c26.9,0,39.4,15.45,39.4,30.89,0,17.36-16.66,34.71-47.21,30.2l.87-1.39c23.43,0,34.02-11.63,34.02-27.6,0-14.41-11.46-29.16-38.53-27.08l-.87,1.04c0,33.33-.17,77.41-.17,110.74h-12.84Z"/><path class="cls-1" d="m379.78,340.93v-116.81h58.67l2.08,5.55c-8.33-1.04-47.9-.87-47.9-.87,0,0,0,50.86,0,50.68,8.68,0,30.55.18,40.62-1.04v6.42c-10.07-.87-24.13-1.04-40.79-.7l.18,51.9s47.56.52,56.23-1.04l-2.08,5.9h-67Z"/><path class="cls-1" d="m495.9,340.93v-112.12c.17,0-31.77,0-40.79,0l1.22-4.69h95.64v4.69h-42.87c0,33.5-.17,78.8-.17,112.12h-13.02Z"/><path class="cls-1" d="m626.08,340.93c-5.03-8.51-21.87-36.8-31.07-52.76-3.3.17-8.51.69-12.32,0l1.39-1.39c21.18,0,33.85-14.06,33.85-30.55,0-14.41-11.46-29.16-38.54-27.08l-.87,1.04v110.74h-13.19c0-10.24.35-98.76,0-116.81h25.52c26.9,0,39.4,15.45,39.4,30.89s-7.98,26.9-22.39,31.42c7.47,14.06,21.35,35.58,33.5,54.5h-15.27Z"/><path class="cls-1" d="m735.94,340.93c-3.99-11.28-10.07-27.08-15.62-40.96h-46.52l-17.01,40.96h-5.03l48.95-118.55h1.56s2.43,7.64,4.34,12.32c15.1,37.66,37.14,89.74,44.26,106.22h-14.93Zm-17.7-45.99c-9.2-22.91-21-52.07-21-52.07v-2.08l-21.52,54.15h42.53Z"/></g><g><path class="cls-2" d="m266.34,378.06l12.72,26.99,12.72-26.99h3.97l-16.77,35.01-16.77-35.01h4.12Z"/><path class="cls-2" d="m332.75,394.83c0,.66,0,.73-.07,1.54h-28.9c.29,5.08,4.49,12.36,13.39,12.36,5.15,0,9.19-2.87,11.47-5.74l2.57,2.65c-3.24,3.9-8.53,6.84-14.05,6.84-10,0-17.21-8.09-17.21-17.65s6.55-17.65,16.55-17.65c8.9,0,16.25,7.35,16.25,17.65Zm-3.97-1.99c-.15-3.82-3.46-11.92-12.28-11.92-9.34,0-12.43,8.24-12.58,11.92h24.86Z"/><path class="cls-2" d="m360.99,378.06l-1.62,3.68s-1.4-.81-4.48-.81c-5.81,0-8.53,6.47-8.53,6.47v24.2h-3.82v-33.54h3.46v5.44s2.87-6.33,9.78-6.33c3.16,0,5.22.88,5.22.88Z"/><path class="cls-2" d="m369.73,411.6v-47.36h3.75v19.12c.88-1.32,4.49-6.18,12.14-6.18,9.34,0,16.7,7.21,16.7,17.65s-7.36,17.65-16.7,17.65c-8.83,0-12.43-6.55-12.43-6.55v5.66h-3.46Zm3.82-10s3.38,7.13,12.06,7.13c7.5,0,12.72-6.1,12.72-13.9s-5.22-13.9-12.72-13.9c-8.68,0-12.06,7.13-12.06,7.13v13.53Z"/><path class="cls-2" d="m415.04,364.23c1.62,0,2.94,1.32,2.94,2.94s-1.32,2.94-2.94,2.94-2.94-1.32-2.94-2.94,1.32-2.94,2.94-2.94Zm-1.91,13.83h3.82v33.54h-3.82v-33.54Z"/><path class="cls-2" d="m460.56,394.83c0,.66,0,.73-.07,1.54h-28.9c.29,5.08,4.49,12.36,13.39,12.36,5.15,0,9.19-2.87,11.47-5.74l2.57,2.65c-3.24,3.9-8.53,6.84-14.05,6.84-10,0-17.21-8.09-17.21-17.65s6.55-17.65,16.55-17.65c8.9,0,16.25,7.35,16.25,17.65Zm-3.97-1.99c-.15-3.82-3.46-11.92-12.28-11.92-9.34,0-12.43,8.24-12.58,11.92h24.86Z"/><path class="cls-2" d="m488.79,378.06l-1.62,3.68s-1.4-.81-4.48-.81c-5.81,0-8.53,6.47-8.53,6.47v24.2h-3.82v-33.54h3.46v5.44s2.87-6.33,9.78-6.33c3.16,0,5.22.88,5.22.88Z"/></g><g><polygon class="cls-2" points="381.8 90.62 375.14 79.92 345.47 127.62 352.13 138.33 381.8 90.62"/><polygon class="cls-2" points="301.13 198.91 314.45 198.91 340.99 156.23 334.33 145.53 301.13 198.91"/><polygon class="cls-2" points="424.84 0 386.27 62.01 392.93 72.72 424.84 21.42 535.22 198.91 548.54 198.91 424.84 0"/><polygon class="cls-2" points="312.32 110.14 257.11 198.91 270.43 198.91 318.98 120.85 312.32 110.14"/><polygon class="cls-2" points="391.81 78.12 390.69 76.32 384.03 65.61 382.91 63.81 381.8 62.01 362.02 30.22 323.46 92.23 330.12 102.94 362.02 51.64 375.14 72.72 376.25 74.52 377.37 76.32 384.03 87.03 385.15 88.83 386.27 90.62 453.61 198.91 466.93 198.91 392.93 79.92 391.81 78.12"/><polygon class="cls-2" points="351.01 143.73 349.89 141.93 343.23 131.22 342.11 129.42 340.99 127.62 330.12 110.14 329 108.34 327.88 106.54 321.22 95.83 320.1 94.03 318.98 92.23 299.21 60.45 213.1 198.91 226.42 198.91 299.21 81.86 312.32 102.94 313.44 104.74 314.56 106.54 321.22 117.25 322.34 119.05 323.46 120.85 334.33 138.33 335.45 140.13 336.57 141.93 343.23 152.64 344.35 154.44 345.47 156.23 372 198.91 385.32 198.91 352.12 145.53 351.01 143.73"/></g></svg>