<?xml version="1.0" standalone="no"?>
<!DOCTYPE svg PUBLIC "-//W3C//DTD SVG 20010904//EN"
 "http://www.w3.org/TR/2001/REC-SVG-20010904/DTD/svg10.dtd">
<svg version="1.0" xmlns="http://www.w3.org/2000/svg"
 width="246.000000pt" height="246.000000pt" viewBox="0 0 246.000000 246.000000"
 preserveAspectRatio="xMidYMid meet">
<metadata>
Created by potrace 1.14, written by Peter Selinger 2001-2017
</metadata>
<g transform="translate(0.000000,246.000000) scale(0.100000,-0.100000)"
fill="#000000" stroke="none">
<path d="M1523 1929 c-10 -19 -20 -38 -20 -43 -1 -5 -5 -12 -10 -15 -4 -3 -57
-83 -116 -177 -97 -156 -124 -214 -98 -214 5 0 13 -9 16 -20 13 -42 30 -23
125 139 8 14 25 41 38 59 13 17 20 32 15 32 -4 0 -3 4 3 8 6 4 25 28 42 55
l30 47 18 -27 c10 -16 24 -37 30 -48 14 -27 337 -545 383 -615 19 -30 35 -57
35 -60 0 -3 7 -13 16 -23 8 -10 13 -20 12 -24 -2 -3 0 -9 6 -12 5 -3 22 -28
37 -56 16 -27 32 -52 35 -55 11 -10 135 -215 132 -219 -2 -2 1 -7 6 -10 5 -3
24 -31 43 -61 47 -78 52 -82 104 -78 l45 3 -48 77 c-26 42 -80 130 -119 194
-40 64 -73 120 -73 125 0 5 -4 9 -10 9 -5 0 -10 7 -10 15 0 8 -4 15 -9 15 -5
0 -14 14 -21 30 -7 16 -16 30 -21 30 -5 0 -9 5 -9 10 0 9 -32 64 -130 220 -5
8 -41 65 -80 126 -38 62 -70 116 -70 122 0 5 -7 13 -16 16 -9 4 -14 9 -11 12
3 4 -5 21 -18 39 -14 17 -25 35 -25 39 0 4 -5 12 -10 19 -10 12 -63 92 -87
132 -75 124 -106 174 -121 194 l-19 23 -20 -33z"/>
<path d="M1070 1715 c0 -8 -4 -15 -10 -15 -5 0 -10 -4 -10 -10 0 -8 -39 -71
-128 -210 -9 -14 -15 -29 -14 -33 1 -4 -5 -10 -13 -13 -8 -4 -15 -12 -15 -20
0 -8 -5 -14 -12 -14 -6 0 -8 -3 -5 -7 4 -3 -4 -20 -17 -37 -38 -50 -40 -71
-13 -111 l24 -36 17 25 c9 14 16 30 16 35 0 5 4 11 8 13 4 2 26 32 47 68 21
36 43 67 47 68 4 2 8 12 8 23 0 10 5 19 10 19 6 0 14 8 17 18 4 9 19 36 33 59
l27 42 66 -102 c36 -56 66 -106 66 -111 -1 -5 3 -12 8 -15 9 -7 83 -118 83
-125 0 -5 43 -73 58 -91 4 -5 11 -17 15 -25 9 -18 22 -40 60 -97 15 -24 27
-47 27 -53 0 -5 5 -10 10 -10 6 0 10 -7 10 -15 0 -8 5 -15 10 -15 6 0 10 -4
10 -10 0 -5 25 -48 55 -95 30 -46 55 -87 55 -91 0 -3 6 -12 13 -19 22 -26 32
-41 35 -55 2 -8 8 -16 13 -18 5 -2 9 -10 9 -18 0 -8 5 -14 10 -14 6 0 10 -5
10 -10 0 -6 10 -26 23 -45 20 -32 26 -35 70 -35 26 0 47 2 47 5 0 12 -24 55
-32 55 -4 0 -8 5 -8 11 0 6 -12 29 -27 52 -16 23 -33 51 -40 62 -17 30 -200
322 -239 382 -19 29 -34 57 -34 62 0 5 -4 11 -8 13 -5 2 -33 43 -63 92 -30 48
-64 105 -77 125 -13 20 -25 44 -29 54 -3 9 -9 17 -13 17 -7 0 -27 37 -28 53 0
5 -10 17 -21 26 -12 10 -21 22 -21 25 0 4 -13 27 -30 50 -16 24 -26 46 -23 50
4 3 2 6 -4 6 -5 0 -18 18 -29 40 -19 39 -54 56 -54 25z"/>
<path d="M609 1492 c-8 -15 -16 -29 -19 -32 -10 -10 -60 -90 -60 -96 0 -4 -10
-21 -23 -38 -12 -17 -47 -71 -77 -121 -30 -49 -57 -92 -60 -95 -3 -3 -25 -39
-50 -80 -24 -41 -47 -76 -52 -78 -4 -2 -8 -9 -8 -17 0 -7 -7 -18 -15 -25 -8
-7 -13 -16 -10 -20 3 -5 2 -10 -3 -12 -4 -1 -45 -64 -91 -138 -46 -74 -94
-151 -107 -171 -32 -48 -30 -57 14 -61 47 -4 52 2 150 160 43 67 85 135 94
150 10 15 25 42 35 60 9 17 20 32 25 32 4 0 8 4 8 10 0 5 20 41 45 80 25 39
45 74 45 80 0 5 6 13 14 17 8 4 14 10 13 13 -1 5 5 15 77 128 25 40 46 75 46
78 0 3 7 12 15 20 16 17 35 11 35 -12 0 -8 5 -14 11 -14 5 0 7 -4 4 -10 -3 -5
-2 -10 3 -10 5 0 31 -37 57 -82 27 -46 70 -115 97 -155 26 -40 48 -75 48 -78
0 -3 15 -29 34 -58 18 -28 56 -88 84 -132 28 -44 56 -86 62 -92 6 -7 10 -15 9
-18 0 -3 22 -42 50 -85 l51 -80 45 0 c38 0 45 3 45 19 0 11 -4 21 -8 23 -8 3
-99 144 -132 205 -8 16 -17 30 -20 33 -12 11 -90 140 -90 149 0 5 -4 11 -8 13
-10 4 -92 135 -92 147 0 5 -4 11 -8 13 -6 3 -87 129 -133 208 -8 14 -16 27
-19 30 -3 3 -27 40 -53 82 -27 43 -52 80 -56 82 -4 3 -14 -7 -22 -22z"/>
<path d="M1144 1317 c-20 -34 -43 -69 -49 -77 -7 -8 -21 -31 -32 -50 -10 -19
-36 -61 -56 -92 -20 -31 -37 -63 -37 -70 0 -7 11 -26 24 -43 24 -30 25 -30 40
-10 8 11 23 36 32 55 9 19 22 38 28 42 6 4 11 11 11 15 0 4 16 33 36 63 19 30
46 73 59 95 13 22 28 42 32 43 5 2 0 18 -9 35 -35 62 -39 62 -79 -6z"/>
<path d="M699 1122 c-13 -20 -26 -41 -28 -47 -2 -5 -23 -39 -46 -75 -23 -36
-42 -69 -42 -74 -1 -5 -5 -12 -11 -15 -5 -3 -39 -55 -76 -116 -37 -60 -89
-145 -116 -187 -27 -43 -46 -78 -42 -78 4 0 0 -5 -8 -10 -11 -7 0 -10 37 -10
l53 0 52 83 c29 46 58 92 65 103 7 10 27 44 46 74 19 30 53 87 77 125 24 39
46 72 49 75 3 3 13 19 22 35 8 17 22 40 29 52 12 19 11 26 -6 58 -10 20 -22
39 -26 41 -3 2 -17 -13 -29 -34z"/>
<path d="M878 885 c-7 -9 -19 -22 -25 -30 -7 -7 -13 -17 -13 -21 0 -4 -11 -24
-24 -43 -12 -20 -44 -70 -69 -111 -26 -41 -50 -79 -54 -85 -5 -5 -18 -26 -30
-47 l-21 -36 49 -4 c27 -1 51 2 54 7 3 6 14 24 25 40 11 17 23 37 27 45 4 8
11 20 15 25 5 6 34 50 64 99 57 91 62 116 29 149 -8 8 -11 17 -8 21 4 3 4 6 0
6 -3 0 -12 -7 -19 -15z"/>
</g>
</svg>
